<svg xmlns="http://www.w3.org/2000/svg" viewBox="0 0 1440 320">
    <path fill="#fa6a38" fill-opacity="1" d="M0,128L30,128C60,128,120,128,180,154.7C240,181,300,235,360,261.3C420,288,480,288,540,266.7C600,245,660,203,720,165.3C780,128,840,96,900,85.3C960,75,1020,85,1080,128C1140,171,1200,245,1260,256C1320,267,1380,213,1410,186.7L1440,160L1440,0L1410,0C1380,0,1320,0,1260,0C1200,0,1140,0,1080,0C1020,0,960,0,900,0C840,0,780,0,720,0C660,0,600,0,540,0C480,0,420,0,360,0C300,0,240,0,180,0C120,0,60,0,30,0L0,0Z"></path>
</svg>